<svg width="17" height="15" viewBox="0 0 17 15" fill="none" xmlns="http://www.w3.org/2000/svg">
<g opacity="0.75" clip-path="url(#clip0_132_11)">
<path d="M0.957072 14.7715C1.20269 14.7715 1.41549 14.6812 1.59498 14.4997C2.2304 13.8593 7.31178 8.73411 7.9467 8.09321C8.12619 7.91217 8.21618 7.69804 8.21618 7.4498C8.21618 7.20207 8.12619 6.98743 7.9467 6.8064C7.31178 6.166 2.2304 1.04082 1.59498 0.399918C1.41549 0.218882 1.20269 0.128113 0.957072 0.128113C0.711455 0.128113 0.498654 0.218882 0.319165 0.399918C0.139676 0.580954 0.0496826 0.79559 0.0496826 1.04332C0.0496826 2.32462 0.0496826 12.575 0.0496826 13.8563C0.0496826 14.1045 0.139676 14.3187 0.319165 14.4997C0.498654 14.6812 0.711455 14.7715 0.957072 14.7715Z" fill="#EF5DA8"/>
</g>
<g opacity="0.75" clip-path="url(#clip1_132_11)">
<path d="M8.95707 14.7715C9.20269 14.7715 9.41549 14.6812 9.59498 14.4997C10.2304 13.8593 15.3118 8.73411 15.9467 8.09321C16.1262 7.91217 16.2162 7.69804 16.2162 7.4498C16.2162 7.20207 16.1262 6.98743 15.9467 6.8064C15.3118 6.166 10.2304 1.04082 9.59498 0.399918C9.41549 0.218882 9.20269 0.128113 8.95707 0.128113C8.71146 0.128113 8.49865 0.218882 8.31916 0.399918C8.13968 0.580954 8.04968 0.79559 8.04968 1.04332C8.04968 2.32462 8.04968 12.575 8.04968 13.8563C8.04968 14.1045 8.13968 14.3187 8.31916 14.4997C8.49865 14.6812 8.71146 14.7715 8.95707 14.7715Z" fill="#EF5DA8"/>
</g>
<defs>
<clipPath id="clip0_132_11">
<rect width="8.36539" height="15" fill="white"/>
</clipPath>
<clipPath id="clip1_132_11">
<rect width="8.36539" height="15" fill="white" transform="translate(7.99997)"/>
</clipPath>
</defs>
</svg>
