<svg width="26" height="26" viewBox="0 0 26 26" fill="none" xmlns="http://www.w3.org/2000/svg">
<path fill-rule="evenodd" clip-rule="evenodd" d="M21.544 10.312H23.752C24.424 10.312 25 10.888 25 11.56V14.44C25 15.112 24.424 15.688 23.752 15.688H21.544C21.256 15.688 20.872 15.976 20.776 16.264C20.68 16.648 20.68 16.936 20.968 17.224L22.6 18.856C22.888 19.048 22.984 19.432 22.984 19.72C22.984 20.008 22.792 20.392 22.6 20.584L20.584 22.6C20.104 23.08 19.336 23.08 18.856 22.6L17.224 20.968C16.936 20.68 16.552 20.68 16.264 20.776C15.88 20.872 15.688 21.16 15.688 21.544V23.752C15.688 24.424 15.112 25 14.44 25H11.56C10.888 25 10.312 24.424 10.312 23.752V21.544C10.312 21.256 10.024 20.872 9.736 20.776C9.352 20.68 9.064 20.68 8.776 20.968L7.144 22.6C6.664 23.08 5.896 23.08 5.416 22.6L3.4 20.584C3.112 20.392 3.016 20.008 3.016 19.72C3.016 19.432 3.208 19.048 3.4 18.856L5.032 17.224C5.32 16.936 5.32 16.552 5.224 16.264C5.128 15.88 4.84 15.688 4.456 15.688H2.248C1.576 15.688 1 15.112 1 14.44V11.56C1 10.888 1.576 10.312 2.248 10.312H4.456C4.744 10.312 5.128 10.024 5.224 9.736C5.32 9.352 5.32 9.064 5.032 8.776L3.4 7.144C3.112 6.952 3.016 6.568 3.016 6.28C3.016 5.992 3.208 5.608 3.4 5.416L5.416 3.4C5.896 2.92 6.664 2.92 7.144 3.4L8.776 5.032C9.064 5.32 9.448 5.32 9.736 5.224C10.12 5.128 10.312 4.84 10.312 4.456V2.248C10.312 1.576 10.888 1 11.56 1H14.44C15.112 1 15.688 1.576 15.688 2.248V4.456C15.688 4.744 15.976 5.128 16.264 5.224C16.648 5.32 16.936 5.32 17.224 5.032L18.856 3.4C19.336 2.92 20.104 2.92 20.584 3.4L22.6 5.416C22.888 5.608 22.984 5.992 22.984 6.28C22.984 6.568 22.792 6.952 22.6 7.144L20.968 8.776C20.68 9.064 20.68 9.448 20.776 9.736C20.872 10.12 21.16 10.312 21.544 10.312ZM23.752 14.824C23.944 14.824 24.136 14.632 24.136 14.44V11.56C24.136 11.368 23.944 11.176 23.752 11.176H21.544C20.776 11.176 20.2 10.792 19.912 10.12C19.624 9.448 19.816 8.68 20.296 8.2L21.928 6.568C22.024 6.472 22.024 6.184 21.928 6.088L19.912 4.072C19.816 3.976 19.528 3.976 19.432 4.072L17.8 5.704C17.32 6.184 16.552 6.376 15.88 6.088C15.208 5.8 14.824 5.224 14.824 4.456V2.248C14.824 2.056 14.632 1.864 14.44 1.864H11.56C11.368 1.864 11.176 2.056 11.176 2.248V4.456C11.176 5.224 10.792 5.8 10.12 6.088C9.448 6.376 8.68 6.184 8.2 5.704L6.568 4.072C6.472 3.976 6.184 3.976 6.088 4.072L4.072 6.088C3.976 6.184 3.976 6.472 4.072 6.568L5.704 8.2C6.184 8.68 6.376 9.448 6.088 10.12C5.8 10.792 5.224 11.176 4.456 11.176H2.248C2.056 11.176 1.864 11.368 1.864 11.56V14.44C1.864 14.632 2.056 14.824 2.248 14.824H4.456C5.224 14.824 5.8 15.208 6.088 15.88C6.376 16.552 6.184 17.32 5.704 17.8L4.072 19.432C3.976 19.528 3.976 19.816 4.072 19.912L6.088 21.928C6.184 22.024 6.472 22.024 6.568 21.928L8.2 20.296C8.584 20.008 8.968 19.816 9.448 19.816C9.64 19.816 9.928 19.816 10.12 19.912C10.792 20.2 11.176 20.776 11.176 21.544V23.752C11.176 23.944 11.368 24.136 11.56 24.136H14.44C14.632 24.136 14.824 23.944 14.824 23.752V21.544C14.824 20.776 15.208 20.2 15.88 19.912C16.552 19.624 17.32 19.816 17.8 20.296L19.432 21.928C19.528 22.024 19.816 22.024 19.912 21.928L21.928 19.912C22.024 19.816 22.024 19.528 21.928 19.432L20.296 17.8C19.816 17.32 19.624 16.552 19.912 15.88C20.2 15.208 20.776 14.824 21.544 14.824H23.752Z" fill="#CDD0E3"/>
<path d="M20.776 16.264L20.3017 16.1059L20.2956 16.1241L20.2909 16.1427L20.776 16.264ZM22.6 18.856L22.2464 19.2096L22.2815 19.2446L22.3227 19.272L22.6 18.856ZM16.264 20.776L16.3853 21.2611L16.4039 21.2564L16.4221 21.2503L16.264 20.776ZM9.736 20.776L9.89411 20.3017L9.8759 20.2956L9.85727 20.2909L9.736 20.776ZM7.144 22.6L7.49755 22.9536L7.144 22.6ZM5.416 22.6L5.06245 22.9536L5.416 22.6ZM3.4 20.584L3.75355 20.2304L3.71854 20.1954L3.67735 20.168L3.4 20.584ZM3.4 18.856L3.75355 19.2096H3.75355L3.4 18.856ZM5.224 16.264L4.73893 16.3853L4.74359 16.4039L4.74966 16.4221L5.224 16.264ZM5.224 9.736L5.69834 9.89411L5.70441 9.8759L5.70907 9.85727L5.224 9.736ZM3.4 7.144L3.75355 6.79045L3.71854 6.75544L3.67735 6.72797L3.4 7.144ZM9.736 5.224L9.61473 4.73893L9.5961 4.74359L9.57789 4.74966L9.736 5.224ZM16.264 5.224L16.1059 5.69834L16.1241 5.70441L16.1427 5.70907L16.264 5.224ZM18.856 3.4L19.2096 3.75355L18.856 3.4ZM20.584 3.4L20.2304 3.75355V3.75355L20.584 3.4ZM22.6 5.416L22.2464 5.76955L22.2815 5.80456L22.3227 5.83203L22.6 5.416ZM22.6 7.144L22.9536 7.49755V7.49755L22.6 7.144ZM20.776 9.736L21.2611 9.61473L21.2564 9.5961L21.2503 9.57789L20.776 9.736ZM20.296 8.2L19.9424 7.84645L20.296 8.2ZM21.928 6.568L22.2816 6.92155L22.2816 6.92155L21.928 6.568ZM21.928 6.088L22.2816 5.73445L22.2816 5.73445L21.928 6.088ZM19.912 4.072L20.2656 3.71845L20.2656 3.71845L19.912 4.072ZM19.432 4.072L19.7856 4.42555L19.7856 4.42555L19.432 4.072ZM17.8 5.704L17.4464 5.35045V5.35045L17.8 5.704ZM15.88 6.088L16.077 5.62843V5.62843L15.88 6.088ZM10.12 6.088L9.92304 5.62843V5.62843L10.12 6.088ZM6.568 4.072L6.21445 4.42555L6.21445 4.42555L6.568 4.072ZM6.088 4.072L5.73445 3.71845L5.73445 3.71845L6.088 4.072ZM4.072 6.088L3.71845 5.73445L3.71845 5.73445L4.072 6.088ZM4.072 6.568L4.42555 6.21445L4.42555 6.21445L4.072 6.568ZM6.088 10.12L5.62843 9.92304H5.62843L6.088 10.12ZM6.088 15.88L5.62843 16.077H5.62843L6.088 15.88ZM5.704 17.8L5.35045 17.4464H5.35045L5.704 17.8ZM4.072 19.432L4.42555 19.7856L4.42555 19.7856L4.072 19.432ZM4.072 19.912L3.71845 20.2656L3.71845 20.2656L4.072 19.912ZM6.088 21.928L5.73445 22.2816L5.73445 22.2816L6.088 21.928ZM6.568 21.928L6.92155 22.2816L6.92155 22.2816L6.568 21.928ZM8.2 20.296L7.9 19.896L7.87157 19.9173L7.84645 19.9424L8.2 20.296ZM10.12 19.912L9.89639 20.3592L9.90953 20.3658L9.92304 20.3716L10.12 19.912ZM17.8 20.296L17.4464 20.6496L17.8 20.296ZM19.432 21.928L19.7856 21.5744L19.432 21.928ZM19.912 21.928L20.2656 22.2816L20.2656 22.2816L19.912 21.928ZM21.928 19.912L22.2816 20.2656L22.2816 20.2656L21.928 19.912ZM21.928 19.432L21.5744 19.7856L21.928 19.432ZM20.296 17.8L20.6496 17.4464L20.296 17.8ZM23.752 9.812H21.544V10.812H23.752V9.812ZM25.5 11.56C25.5 10.6119 24.7001 9.812 23.752 9.812V10.812C24.1479 10.812 24.5 11.1641 24.5 11.56H25.5ZM25.5 14.44V11.56H24.5V14.44H25.5ZM23.752 16.188C24.7001 16.188 25.5 15.3881 25.5 14.44H24.5C24.5 14.8359 24.1479 15.188 23.752 15.188V16.188ZM21.544 16.188H23.752V15.188H21.544V16.188ZM21.2503 16.4221C21.2515 16.4187 21.2599 16.398 21.2864 16.3648C21.312 16.3329 21.3469 16.2988 21.388 16.268C21.4292 16.2371 21.4697 16.2147 21.5032 16.2011C21.5386 16.1868 21.5522 16.188 21.544 16.188V15.188C21.2523 15.188 20.9804 15.3237 20.788 15.468C20.5929 15.6143 20.392 15.8348 20.3017 16.1059L21.2503 16.4221ZM21.3216 16.8704C21.2432 16.792 21.2281 16.7422 21.2222 16.704C21.2135 16.6474 21.2181 16.5571 21.2611 16.3853L20.2909 16.1427C20.2379 16.3549 20.1945 16.6006 20.2338 16.856C20.2759 17.1298 20.4048 17.368 20.6144 17.5776L21.3216 16.8704ZM22.9536 18.5024L21.3216 16.8704L20.6144 17.5776L22.2464 19.2096L22.9536 18.5024ZM23.484 19.72C23.484 19.3694 23.3733 18.7706 22.8773 18.44L22.3227 19.272C22.3577 19.2954 22.3991 19.3426 22.4333 19.4315C22.4677 19.5209 22.484 19.6265 22.484 19.72H23.484ZM22.9536 20.9376C23.1007 20.7904 23.2275 20.5935 23.318 20.3975C23.4071 20.2044 23.484 19.9623 23.484 19.72H22.484C22.484 19.7657 22.4649 19.8596 22.41 19.9785C22.3565 20.0945 22.2913 20.1856 22.2464 20.2304L22.9536 20.9376ZM20.9376 22.9536L22.9536 20.9376L22.2464 20.2304L20.2304 22.2464L20.9376 22.9536ZM18.5024 22.9536C19.1777 23.6288 20.2623 23.6288 20.9376 22.9536L20.2304 22.2464C19.9457 22.5312 19.4943 22.5312 19.2096 22.2464L18.5024 22.9536ZM16.8704 21.3216L18.5024 22.9536L19.2096 22.2464L17.5776 20.6144L16.8704 21.3216ZM16.4221 21.2503C16.6021 21.1904 16.7625 21.2136 16.8704 21.3216L17.5776 20.6144C17.1095 20.1464 16.5019 20.1696 16.1059 20.3017L16.4221 21.2503ZM16.188 21.544C16.188 21.4347 16.2148 21.3757 16.2364 21.3461C16.2552 21.3202 16.2929 21.2842 16.3853 21.2611L16.1427 20.2909C15.8511 20.3638 15.6008 20.5198 15.4276 20.7579C15.2572 20.9923 15.188 21.2693 15.188 21.544H16.188ZM16.188 23.752V21.544H15.188V23.752H16.188ZM14.44 25.5C15.3881 25.5 16.188 24.7001 16.188 23.752H15.188C15.188 24.1479 14.8359 24.5 14.44 24.5V25.5ZM11.56 25.5H14.44V24.5H11.56V25.5ZM9.812 23.752C9.812 24.7001 10.6119 25.5 11.56 25.5V24.5C11.1641 24.5 10.812 24.1479 10.812 23.752H9.812ZM9.812 21.544V23.752H10.812V21.544H9.812ZM9.57789 21.2503C9.58129 21.2515 9.60201 21.2599 9.63515 21.2864C9.66709 21.312 9.70117 21.3469 9.732 21.388C9.76292 21.4292 9.78534 21.4697 9.79888 21.5032C9.81318 21.5386 9.812 21.5522 9.812 21.544H10.812C10.812 21.2523 10.6763 20.9804 10.532 20.788C10.3857 20.5929 10.1652 20.392 9.89411 20.3017L9.57789 21.2503ZM9.12955 21.3216C9.20795 21.2432 9.25781 21.2281 9.29603 21.2222C9.35262 21.2135 9.44288 21.2181 9.61473 21.2611L9.85727 20.2909C9.64512 20.2379 9.39938 20.1945 9.14397 20.2338C8.87019 20.2759 8.63205 20.4048 8.42245 20.6144L9.12955 21.3216ZM7.49755 22.9536L9.12955 21.3216L8.42245 20.6144L6.79045 22.2464L7.49755 22.9536ZM5.06245 22.9536C5.73771 23.6288 6.82229 23.6288 7.49755 22.9536L6.79045 22.2464C6.50571 22.5312 6.05429 22.5312 5.76955 22.2464L5.06245 22.9536ZM3.04645 20.9376L5.06245 22.9536L5.76955 22.2464L3.75355 20.2304L3.04645 20.9376ZM2.516 19.72C2.516 20.0706 2.62666 20.6694 3.12265 21L3.67735 20.168C3.64234 20.1446 3.60085 20.0974 3.56667 20.0085C3.53229 19.9191 3.516 19.8135 3.516 19.72H2.516ZM3.04645 18.5024C2.89932 18.6496 2.77246 18.8465 2.68202 19.0425C2.59288 19.2356 2.516 19.4777 2.516 19.72H3.516C3.516 19.6743 3.53512 19.5804 3.58998 19.4615C3.64354 19.3455 3.70868 19.2544 3.75355 19.2096L3.04645 18.5024ZM4.67845 16.8704L3.04645 18.5024L3.75355 19.2096L5.38555 17.5776L4.67845 16.8704ZM4.74966 16.4221C4.80965 16.6021 4.78639 16.7625 4.67845 16.8704L5.38555 17.5776C5.85361 17.1095 5.83035 16.5019 5.69834 16.1059L4.74966 16.4221ZM4.456 16.188C4.56533 16.188 4.62426 16.2148 4.65391 16.2364C4.67982 16.2552 4.71585 16.2929 4.73893 16.3853L5.70907 16.1427C5.63615 15.8511 5.48018 15.6008 5.24209 15.4276C5.00774 15.2572 4.73068 15.188 4.456 15.188V16.188ZM2.248 16.188H4.456V15.188H2.248V16.188ZM0.5 14.44C0.5 15.3881 1.29986 16.188 2.248 16.188V15.188C1.85214 15.188 1.5 14.8359 1.5 14.44H0.5ZM0.5 11.56V14.44H1.5V11.56H0.5ZM2.248 9.812C1.29986 9.812 0.5 10.6119 0.5 11.56H1.5C1.5 11.1641 1.85214 10.812 2.248 10.812V9.812ZM4.456 9.812H2.248V10.812H4.456V9.812ZM4.74966 9.57789C4.74852 9.58129 4.74008 9.60201 4.71357 9.63515C4.68801 9.66709 4.65311 9.70117 4.612 9.732C4.57077 9.76292 4.53029 9.78534 4.49677 9.79888C4.46137 9.81318 4.44783 9.812 4.456 9.812V10.812C4.74771 10.812 5.01957 10.6763 5.212 10.532C5.40706 10.3857 5.60799 10.1652 5.69834 9.89411L4.74966 9.57789ZM4.67845 9.12955C4.75685 9.20795 4.77193 9.25781 4.77781 9.29603C4.78652 9.35262 4.78189 9.44288 4.73893 9.61473L5.70907 9.85727C5.76211 9.64512 5.80548 9.39938 5.76619 9.14397C5.72407 8.87019 5.59515 8.63205 5.38555 8.42245L4.67845 9.12955ZM3.04645 7.49755L4.67845 9.12955L5.38555 8.42245L3.75355 6.79045L3.04645 7.49755ZM2.516 6.28C2.516 6.6306 2.62666 7.22936 3.12265 7.56003L3.67735 6.72797C3.64234 6.70464 3.60085 6.65738 3.56667 6.56851C3.53229 6.47912 3.516 6.37349 3.516 6.28H2.516ZM3.04645 5.06245C2.89932 5.20958 2.77246 5.40652 2.68202 5.60247C2.59288 5.79562 2.516 6.0377 2.516 6.28H3.516C3.516 6.2343 3.53512 6.14038 3.58998 6.02153C3.64354 5.90548 3.70868 5.81442 3.75355 5.76955L3.04645 5.06245ZM5.06245 3.04645L3.04645 5.06245L3.75355 5.76955L5.76955 3.75355L5.06245 3.04645ZM7.49755 3.04645C6.82229 2.37118 5.73771 2.37118 5.06245 3.04645L5.76955 3.75355C6.05429 3.46882 6.50571 3.46882 6.79045 3.75355L7.49755 3.04645ZM9.12955 4.67845L7.49755 3.04645L6.79045 3.75355L8.42245 5.38555L9.12955 4.67845ZM9.57789 4.74966C9.39792 4.80965 9.23749 4.78639 9.12955 4.67845L8.42245 5.38555C8.89051 5.85361 9.49808 5.83035 9.89411 5.69834L9.57789 4.74966ZM9.812 4.456C9.812 4.56533 9.7852 4.62426 9.76363 4.65391C9.74479 4.67982 9.70705 4.71585 9.61473 4.73893L9.85727 5.70907C10.1489 5.63615 10.3992 5.48018 10.5724 5.24209C10.7428 5.00774 10.812 4.73068 10.812 4.456H9.812ZM9.812 2.248V4.456H10.812V2.248H9.812ZM11.56 0.5C10.6119 0.5 9.812 1.29986 9.812 2.248H10.812C10.812 1.85214 11.1641 1.5 11.56 1.5V0.5ZM14.44 0.5H11.56V1.5H14.44V0.5ZM16.188 2.248C16.188 1.29986 15.3881 0.5 14.44 0.5V1.5C14.8359 1.5 15.188 1.85214 15.188 2.248H16.188ZM16.188 4.456V2.248H15.188V4.456H16.188ZM16.4221 4.74966C16.4187 4.74852 16.398 4.74008 16.3648 4.71357C16.3329 4.68801 16.2988 4.65311 16.268 4.612C16.2371 4.57077 16.2147 4.53029 16.2011 4.49677C16.1868 4.46137 16.188 4.44783 16.188 4.456H15.188C15.188 4.74771 15.3237 5.01957 15.468 5.212C15.6143 5.40706 15.8348 5.60799 16.1059 5.69834L16.4221 4.74966ZM16.8704 4.67845C16.792 4.75685 16.7422 4.77193 16.704 4.77781C16.6474 4.78652 16.5571 4.78189 16.3853 4.73893L16.1427 5.70907C16.3549 5.76211 16.6006 5.80548 16.856 5.76619C17.1298 5.72407 17.368 5.59515 17.5776 5.38555L16.8704 4.67845ZM18.5024 3.04645L16.8704 4.67845L17.5776 5.38555L19.2096 3.75355L18.5024 3.04645ZM20.9376 3.04645C20.2623 2.37118 19.1777 2.37118 18.5024 3.04645L19.2096 3.75355C19.4943 3.46882 19.9457 3.46882 20.2304 3.75355L20.9376 3.04645ZM22.9536 5.06245L20.9376 3.04645L20.2304 3.75355L22.2464 5.76955L22.9536 5.06245ZM23.484 6.28C23.484 5.9294 23.3733 5.33064 22.8773 4.99997L22.3227 5.83203C22.3577 5.85536 22.3991 5.90262 22.4333 5.99149C22.4677 6.08088 22.484 6.18651 22.484 6.28H23.484ZM22.9536 7.49755C23.1007 7.35042 23.2275 7.15348 23.318 6.95753C23.4071 6.76438 23.484 6.52229 23.484 6.28H22.484C22.484 6.32571 22.4649 6.41962 22.41 6.53847C22.3565 6.65452 22.2913 6.74558 22.2464 6.79045L22.9536 7.49755ZM21.3216 9.12955L22.9536 7.49755L22.2464 6.79045L20.6144 8.42245L21.3216 9.12955ZM21.2503 9.57789C21.1904 9.39792 21.2136 9.23749 21.3216 9.12955L20.6144 8.42245C20.1464 8.89051 20.1696 9.49808 20.3017 9.89411L21.2503 9.57789ZM21.544 9.812C21.4347 9.812 21.3757 9.7852 21.3461 9.76363C21.3202 9.74479 21.2842 9.70705 21.2611 9.61473L20.2909 9.85727C20.3638 10.1489 20.5198 10.3992 20.7579 10.5724C20.9923 10.7428 21.2693 10.812 21.544 10.812V9.812ZM23.636 14.44C23.636 14.4048 23.6446 14.3809 23.6499 14.3696C23.6552 14.3583 23.6601 14.3528 23.6624 14.3504C23.6648 14.3481 23.6703 14.3432 23.6816 14.3379C23.6929 14.3326 23.7168 14.324 23.752 14.324V15.324C24.0106 15.324 24.2274 15.1997 24.3696 15.0576C24.5117 14.9154 24.636 14.6986 24.636 14.44H23.636ZM23.636 11.56V14.44H24.636V11.56H23.636ZM23.752 11.676C23.7168 11.676 23.6929 11.6674 23.6816 11.6621C23.6703 11.6568 23.6648 11.6519 23.6624 11.6496C23.6601 11.6472 23.6552 11.6417 23.6499 11.6304C23.6446 11.6191 23.636 11.5952 23.636 11.56H24.636C24.636 11.3014 24.5117 11.0846 24.3696 10.9424C24.2274 10.8003 24.0106 10.676 23.752 10.676V11.676ZM21.544 11.676H23.752V10.676H21.544V11.676ZM19.4524 10.317C19.8208 11.1765 20.58 11.676 21.544 11.676V10.676C20.972 10.676 20.5792 10.4075 20.3716 9.92304L19.4524 10.317ZM19.9424 7.84645C19.3299 8.45897 19.0774 9.44186 19.4524 10.317L20.3716 9.92304C20.1706 9.45414 20.3021 8.90103 20.6496 8.55355L19.9424 7.84645ZM21.5744 6.21445L19.9424 7.84645L20.6496 8.55355L22.2816 6.92155L21.5744 6.21445ZM21.5744 6.44155C21.543 6.41015 21.5253 6.38097 21.5162 6.36353C21.5069 6.34562 21.5028 6.33268 21.5012 6.32736C21.4985 6.31795 21.5 6.31889 21.5 6.328C21.5 6.33711 21.4985 6.33805 21.5012 6.32864C21.5028 6.32332 21.5069 6.31038 21.5162 6.29247C21.5253 6.27503 21.543 6.24585 21.5744 6.21445L22.2816 6.92155C22.388 6.8151 22.438 6.69001 22.4628 6.60336C22.4894 6.50995 22.5 6.41489 22.5 6.328C22.5 6.24111 22.4894 6.14605 22.4628 6.05264C22.438 5.96599 22.388 5.8409 22.2816 5.73445L21.5744 6.44155ZM19.5584 4.42555L21.5744 6.44155L22.2816 5.73445L20.2656 3.71845L19.5584 4.42555ZM19.7856 4.42555C19.7542 4.45695 19.725 4.47469 19.7075 4.48379C19.6896 4.49314 19.6767 4.49724 19.6714 4.49876C19.662 4.50145 19.6629 4.5 19.672 4.5C19.6811 4.5 19.682 4.50145 19.6726 4.49876C19.6673 4.49724 19.6544 4.49314 19.6365 4.48379C19.619 4.47469 19.5898 4.45695 19.5584 4.42555L20.2656 3.71845C20.1591 3.612 20.034 3.562 19.9474 3.53724C19.854 3.51055 19.7589 3.5 19.672 3.5C19.5851 3.5 19.49 3.51055 19.3966 3.53724C19.31 3.562 19.1849 3.612 19.0784 3.71845L19.7856 4.42555ZM18.1536 6.05755L19.7856 4.42555L19.0784 3.71845L17.4464 5.35045L18.1536 6.05755ZM15.683 6.54757C16.5581 6.92262 17.541 6.67008 18.1536 6.05755L17.4464 5.35045C17.099 5.69792 16.5459 5.82938 16.077 5.62843L15.683 6.54757ZM14.324 4.456C14.324 5.41997 14.8235 6.1792 15.683 6.54757L16.077 5.62843C15.5925 5.4208 15.324 5.02803 15.324 4.456H14.324ZM14.324 2.248V4.456H15.324V2.248H14.324ZM14.44 2.364C14.4048 2.364 14.3809 2.35538 14.3696 2.35009C14.3583 2.34482 14.3528 2.33994 14.3504 2.33755C14.3481 2.33516 14.3432 2.32974 14.3379 2.31844C14.3326 2.30712 14.324 2.28323 14.324 2.248H15.324C15.324 1.98938 15.1997 1.77262 15.0576 1.63045C14.9154 1.48827 14.6986 1.364 14.44 1.364V2.364ZM11.56 2.364H14.44V1.364H11.56V2.364ZM11.676 2.248C11.676 2.28323 11.6674 2.30711 11.6621 2.31844C11.6568 2.32974 11.6519 2.33516 11.6496 2.33755C11.6472 2.33994 11.6417 2.34482 11.6304 2.35009C11.6191 2.35538 11.5952 2.364 11.56 2.364V1.364C11.3014 1.364 11.0846 1.48827 10.9424 1.63045C10.8003 1.77262 10.676 1.98938 10.676 2.248H11.676ZM11.676 4.456V2.248H10.676V4.456H11.676ZM10.317 6.54757C11.1765 6.1792 11.676 5.41997 11.676 4.456H10.676C10.676 5.02803 10.4075 5.4208 9.92304 5.62843L10.317 6.54757ZM7.84645 6.05755C8.45897 6.67008 9.44186 6.92262 10.317 6.54757L9.92304 5.62843C9.45414 5.82938 8.90103 5.69792 8.55355 5.35045L7.84645 6.05755ZM6.21445 4.42555L7.84645 6.05755L8.55355 5.35045L6.92155 3.71845L6.21445 4.42555ZM6.44155 4.42555C6.41015 4.45695 6.38097 4.47469 6.36353 4.48379C6.34562 4.49314 6.33268 4.49724 6.32736 4.49876C6.31795 4.50145 6.31889 4.5 6.328 4.5C6.33711 4.5 6.33805 4.50145 6.32864 4.49876C6.32332 4.49724 6.31038 4.49314 6.29247 4.48379C6.27503 4.47469 6.24585 4.45695 6.21445 4.42555L6.92155 3.71845C6.8151 3.612 6.69001 3.562 6.60336 3.53724C6.50995 3.51055 6.41489 3.5 6.328 3.5C6.24111 3.5 6.14605 3.51055 6.05264 3.53724C5.96599 3.562 5.8409 3.612 5.73445 3.71845L6.44155 4.42555ZM4.42555 6.44155L6.44155 4.42555L5.73445 3.71845L3.71845 5.73445L4.42555 6.44155ZM4.42555 6.21445C4.45695 6.24585 4.47469 6.27503 4.48379 6.29247C4.49314 6.31038 4.49724 6.32332 4.49876 6.32864C4.50145 6.33805 4.5 6.33711 4.5 6.328C4.5 6.31889 4.50145 6.31795 4.49876 6.32736C4.49724 6.33268 4.49314 6.34562 4.48379 6.36353C4.47469 6.38097 4.45695 6.41015 4.42555 6.44155L3.71845 5.73445C3.612 5.8409 3.562 5.96599 3.53724 6.05264C3.51055 6.14605 3.5 6.24111 3.5 6.328C3.5 6.41489 3.51055 6.50995 3.53724 6.60336C3.562 6.69001 3.612 6.8151 3.71845 6.92155L4.42555 6.21445ZM6.05755 7.84645L4.42555 6.21445L3.71845 6.92155L5.35045 8.55355L6.05755 7.84645ZM6.54757 10.317C6.92262 9.44186 6.67008 8.45897 6.05755 7.84645L5.35045 8.55355C5.69792 8.90103 5.82938 9.45414 5.62843 9.92304L6.54757 10.317ZM4.456 11.676C5.41997 11.676 6.1792 11.1765 6.54757 10.317L5.62843 9.92304C5.4208 10.4075 5.02803 10.676 4.456 10.676V11.676ZM2.248 11.676H4.456V10.676H2.248V11.676ZM2.364 11.56C2.364 11.5952 2.35538 11.6191 2.35009 11.6304C2.34482 11.6417 2.33994 11.6472 2.33755 11.6496C2.33516 11.6519 2.32974 11.6568 2.31844 11.6621C2.30711 11.6674 2.28323 11.676 2.248 11.676V10.676C1.98938 10.676 1.77262 10.8003 1.63045 10.9424C1.48827 11.0846 1.364 11.3014 1.364 11.56H2.364ZM2.364 14.44V11.56H1.364V14.44H2.364ZM2.248 14.324C2.28323 14.324 2.30712 14.3326 2.31844 14.3379C2.32974 14.3432 2.33516 14.3481 2.33755 14.3504C2.33994 14.3528 2.34482 14.3583 2.35009 14.3696C2.35538 14.3809 2.364 14.4048 2.364 14.44H1.364C1.364 14.6986 1.48827 14.9154 1.63045 15.0576C1.77262 15.1997 1.98938 15.324 2.248 15.324V14.324ZM4.456 14.324H2.248V15.324H4.456V14.324ZM6.54757 15.683C6.1792 14.8235 5.41997 14.324 4.456 14.324V15.324C5.02803 15.324 5.4208 15.5925 5.62843 16.077L6.54757 15.683ZM6.05755 18.1536C6.67008 17.541 6.92262 16.5581 6.54757 15.683L5.62843 16.077C5.82938 16.5459 5.69792 17.099 5.35045 17.4464L6.05755 18.1536ZM4.42555 19.7856L6.05755 18.1536L5.35045 17.4464L3.71845 19.0784L4.42555 19.7856ZM4.42555 19.5584C4.45695 19.5898 4.47469 19.619 4.48379 19.6365C4.49314 19.6544 4.49724 19.6673 4.49876 19.6726C4.50145 19.682 4.5 19.6811 4.5 19.672C4.5 19.6629 4.50145 19.662 4.49876 19.6714C4.49724 19.6767 4.49314 19.6896 4.48379 19.7075C4.47469 19.725 4.45695 19.7542 4.42555 19.7856L3.71845 19.0784C3.612 19.1849 3.562 19.31 3.53724 19.3966C3.51055 19.49 3.5 19.5851 3.5 19.672C3.5 19.7589 3.51055 19.854 3.53724 19.9474C3.562 20.034 3.612 20.1591 3.71845 20.2656L4.42555 19.5584ZM6.44155 21.5744L4.42555 19.5584L3.71845 20.2656L5.73445 22.2816L6.44155 21.5744ZM6.21445 21.5744C6.24585 21.543 6.27503 21.5253 6.29247 21.5162C6.31038 21.5069 6.32332 21.5028 6.32864 21.5012C6.33805 21.4985 6.33711 21.5 6.328 21.5C6.31889 21.5 6.31795 21.4985 6.32736 21.5012C6.33268 21.5028 6.34562 21.5069 6.36353 21.5162C6.38097 21.5253 6.41015 21.543 6.44155 21.5744L5.73445 22.2816C5.8409 22.388 5.96599 22.438 6.05264 22.4628C6.14605 22.4894 6.24111 22.5 6.328 22.5C6.41489 22.5 6.50995 22.4894 6.60336 22.4628C6.69001 22.438 6.8151 22.388 6.92155 22.2816L6.21445 21.5744ZM7.84645 19.9424L6.21445 21.5744L6.92155 22.2816L8.55355 20.6496L7.84645 19.9424ZM9.448 19.316C8.81646 19.316 8.32787 19.5751 7.9 19.896L8.5 20.696C8.84013 20.4409 9.11954 20.316 9.448 20.316V19.316ZM10.3436 19.4648C10.1674 19.3767 9.97676 19.3448 9.83375 19.3305C9.68528 19.3156 9.54121 19.316 9.448 19.316V20.316C9.54679 20.316 9.64272 20.3164 9.73425 20.3255C9.83124 20.3352 9.88059 20.3513 9.89639 20.3592L10.3436 19.4648ZM11.676 21.544C11.676 20.58 11.1765 19.8208 10.317 19.4524L9.92304 20.3716C10.4075 20.5792 10.676 20.972 10.676 21.544H11.676ZM11.676 23.752V21.544H10.676V23.752H11.676ZM11.56 23.636C11.5952 23.636 11.6191 23.6446 11.6304 23.6499C11.6417 23.6552 11.6472 23.6601 11.6496 23.6624C11.6519 23.6648 11.6568 23.6703 11.6621 23.6816C11.6674 23.6929 11.676 23.7168 11.676 23.752H10.676C10.676 24.0106 10.8003 24.2274 10.9424 24.3696C11.0846 24.5117 11.3014 24.636 11.56 24.636V23.636ZM14.44 23.636H11.56V24.636H14.44V23.636ZM14.324 23.752C14.324 23.7168 14.3326 23.6929 14.3379 23.6816C14.3432 23.6703 14.3481 23.6648 14.3504 23.6624C14.3528 23.6601 14.3583 23.6552 14.3696 23.6499C14.3809 23.6446 14.4048 23.636 14.44 23.636V24.636C14.6986 24.636 14.9154 24.5117 15.0576 24.3696C15.1997 24.2274 15.324 24.0106 15.324 23.752H14.324ZM14.324 21.544V23.752H15.324V21.544H14.324ZM15.683 19.4524C14.8235 19.8208 14.324 20.58 14.324 21.544H15.324C15.324 20.972 15.5925 20.5792 16.077 20.3716L15.683 19.4524ZM18.1536 19.9424C17.541 19.3299 16.5581 19.0774 15.683 19.4524L16.077 20.3716C16.5459 20.1706 17.099 20.3021 17.4464 20.6496L18.1536 19.9424ZM19.7856 21.5744L18.1536 19.9424L17.4464 20.6496L19.0784 22.2816L19.7856 21.5744ZM19.5585 21.5744C19.5899 21.543 19.619 21.5253 19.6365 21.5162C19.6544 21.5069 19.6673 21.5028 19.6726 21.5012C19.682 21.4985 19.6811 21.5 19.672 21.5C19.6629 21.5 19.662 21.4985 19.6714 21.5012C19.6767 21.5028 19.6896 21.5069 19.7075 21.5162C19.725 21.5253 19.7542 21.543 19.7856 21.5744L19.0784 22.2816C19.1849 22.388 19.31 22.438 19.3966 22.4628C19.49 22.4894 19.5851 22.5 19.672 22.5C19.7589 22.5 19.854 22.4894 19.9474 22.4628C20.034 22.438 20.1591 22.388 20.2656 22.2816L19.5585 21.5744ZM21.5744 19.5584L19.5584 21.5744L20.2656 22.2816L22.2816 20.2656L21.5744 19.5584ZM21.5744 19.7856C21.543 19.7542 21.5253 19.725 21.5162 19.7075C21.5069 19.6896 21.5028 19.6767 21.5012 19.6714C21.4985 19.662 21.5 19.6629 21.5 19.672C21.5 19.6811 21.4985 19.682 21.5012 19.6726C21.5028 19.6673 21.5069 19.6544 21.5162 19.6365C21.5253 19.619 21.543 19.5899 21.5744 19.5585L22.2816 20.2656C22.388 20.1591 22.438 20.034 22.4628 19.9474C22.4894 19.854 22.5 19.7589 22.5 19.672C22.5 19.5851 22.4894 19.49 22.4628 19.3966C22.438 19.31 22.388 19.1849 22.2816 19.0784L21.5744 19.7856ZM19.9424 18.1536L21.5744 19.7856L22.2816 19.0784L20.6496 17.4464L19.9424 18.1536ZM19.4524 15.683C19.0774 16.5581 19.3299 17.541 19.9424 18.1536L20.6496 17.4464C20.3021 17.099 20.1706 16.5459 20.3716 16.077L19.4524 15.683ZM21.544 14.324C20.58 14.324 19.8208 14.8235 19.4524 15.683L20.3716 16.077C20.5792 15.5925 20.972 15.324 21.544 15.324V14.324ZM23.752 14.324H21.544V15.324H23.752V14.324Z" fill="#CDD0E3"/>
<path fill-rule="evenodd" clip-rule="evenodd" d="M8.968 13C8.968 10.792 10.792 8.96799 13 8.96799C15.208 8.96799 17.032 10.792 17.032 13C17.032 15.208 15.208 17.032 13 17.032C10.792 17.032 8.968 15.208 8.968 13ZM9.928 13C9.928 14.632 11.272 16.072 13 16.072C14.728 16.072 16.072 14.632 16.072 13C16.072 11.368 14.632 9.92799 13 9.92799C11.368 9.92799 9.928 11.368 9.928 13Z" fill="#CDD0E3"/>
<path d="M13 8.67999C10.6329 8.67999 8.68 10.6329 8.68 13H9.256C9.256 10.951 10.9511 9.25599 13 9.25599V8.67999ZM17.32 13C17.32 10.6329 15.3671 8.67999 13 8.67999V9.25599C15.0489 9.25599 16.744 10.951 16.744 13H17.32ZM13 17.32C15.3671 17.32 17.32 15.367 17.32 13H16.744C16.744 15.0489 15.0489 16.744 13 16.744V17.32ZM8.68 13C8.68 15.367 10.6329 17.32 13 17.32V16.744C10.9511 16.744 9.256 15.0489 9.256 13H8.68ZM13 15.784C11.4369 15.784 10.216 14.4788 10.216 13H9.64C9.64 14.7852 11.1071 16.36 13 16.36V15.784ZM15.784 13C15.784 14.4788 14.5631 15.784 13 15.784V16.36C14.8929 16.36 16.36 14.7852 16.36 13H15.784ZM13 10.216C14.4729 10.216 15.784 11.527 15.784 13H16.36C16.36 11.2089 14.7911 9.63999 13 9.63999V10.216ZM10.216 13C10.216 11.527 11.5271 10.216 13 10.216V9.63999C11.2089 9.63999 9.64 11.2089 9.64 13H10.216Z" fill="#CDD0E3"/>
</svg>
