<svg width="31" height="26" viewBox="0 0 31 26" fill="none" xmlns="http://www.w3.org/2000/svg">
<path d="M22.2748 2.69238C20.1666 2.69238 18.4475 4.41151 18.4475 6.51969C18.4475 8.62788 20.1666 10.347 22.2748 10.347C24.383 10.347 26.1021 8.62788 26.1021 6.51969C26.1021 4.41151 24.383 2.69238 22.2748 2.69238Z" stroke="#CDD0E3" stroke-width="2"/>
<path d="M12.0448 1.10068C9.31268 1.10068 7.08654 3.3268 7.08654 6.05891C7.08654 8.79102 9.31268 11.0171 12.0448 11.0171C14.7769 11.0171 17.003 8.79102 17.003 6.05891C17.003 3.3268 14.7769 1.10068 12.0448 1.10068Z" stroke="#CDD0E3" stroke-width="2"/>
<path d="M26.8958 12.3638L26.8957 12.3638C25.4851 11.3832 23.539 10.7914 21.4243 10.7914C19.3096 10.7914 17.3634 11.3832 15.9528 12.3638L15.9528 12.3638C14.5514 13.338 13.6387 14.7116 13.6387 16.2506V20.4126V21.4126H14.6387H27.2098C28.3144 21.4126 29.2098 20.5171 29.2098 19.4126V16.2506C29.2098 14.7116 28.2971 13.338 26.8958 12.3638Z" stroke="#CDD0E3" stroke-width="2"/>
<path d="M19.5933 13.5599L19.5933 13.5599C17.6673 12.4281 14.9975 11.7383 12.0819 11.7383C9.1664 11.7383 6.49657 12.4281 4.57059 13.5599L4.57057 13.5599C2.67384 14.6746 1.38313 16.2742 1.38313 18.1265V22.1555C1.38313 23.26 2.27855 24.1555 3.38312 24.1555H20.7807C21.8853 24.1555 22.7807 23.26 22.7807 22.1555V18.1265C22.7807 16.2742 21.49 14.6746 19.5933 13.5599Z" fill="white" stroke="#CDD0E3" stroke-width="2"/>
</svg>
